<svg xmlns="http://www.w3.org/2000/svg" xmlns:xlink="http://www.w3.org/1999/xlink" width="300" zoomAndPan="magnify" viewBox="0 0 224.87999 44.999999" height="60" preserveAspectRatio="xMidYMid meet" version="1.0"><defs><g/></defs><g fill="#d82036" fill-opacity="1"><g transform="translate(4.4976, 31.194513)"><g><path d="M 16.359375 -17.984375 C 18.472656 -17.984375 20.300781 -17.59375 21.84375 -16.8125 C 23.382812 -16.03125 24.554688 -14.9375 25.359375 -13.53125 C 26.171875 -12.132812 26.578125 -10.507812 26.578125 -8.65625 C 26.578125 -7.164062 26.320312 -5.742188 25.8125 -4.390625 C 25.300781 -3.035156 24.566406 -1.929688 23.609375 -1.078125 C 22.648438 -0.234375 21.523438 0.1875 20.234375 0.1875 C 19.285156 0.1875 18.539062 -0.0195312 18 -0.4375 C 17.46875 -0.851562 17.132812 -1.441406 17 -2.203125 C 16.425781 -1.453125 15.703125 -0.863281 14.828125 -0.4375 C 13.960938 -0.0195312 13.054688 0.1875 12.109375 0.1875 C 10.679688 0.1875 9.5625 -0.238281 8.75 -1.09375 C 7.945312 -1.957031 7.546875 -3.132812 7.546875 -4.625 C 7.546875 -6.03125 7.835938 -7.34375 8.421875 -8.5625 C 9.003906 -9.789062 9.820312 -10.769531 10.875 -11.5 C 11.9375 -12.238281 13.125 -12.609375 14.4375 -12.609375 C 16.050781 -12.609375 17.1875 -12.0625 17.84375 -10.96875 L 18.09375 -12.359375 L 20.84375 -12.359375 L 19.453125 -4.390625 C 19.398438 -4.003906 19.375 -3.664062 19.375 -3.375 C 19.375 -2.882812 19.46875 -2.519531 19.65625 -2.28125 C 19.851562 -2.039062 20.203125 -1.921875 20.703125 -1.921875 C 21.410156 -1.921875 22.015625 -2.265625 22.515625 -2.953125 C 23.015625 -3.648438 23.390625 -4.507812 23.640625 -5.53125 C 23.890625 -6.550781 24.015625 -7.546875 24.015625 -8.515625 C 24.015625 -10.867188 23.328125 -12.664062 21.953125 -13.90625 C 20.578125 -15.15625 18.582031 -15.78125 15.96875 -15.78125 C 13.78125 -15.78125 11.816406 -15.257812 10.078125 -14.21875 C 8.347656 -13.175781 6.988281 -11.742188 6 -9.921875 C 5.019531 -8.109375 4.53125 -6.09375 4.53125 -3.875 C 4.53125 -1.5 5.234375 0.304688 6.640625 1.546875 C 8.054688 2.796875 10.070312 3.421875 12.6875 3.421875 C 14.445312 3.421875 15.988281 3.097656 17.3125 2.453125 L 17.734375 4.5625 C 16.035156 5.289062 14.140625 5.65625 12.046875 5.65625 C 10.023438 5.65625 8.253906 5.273438 6.734375 4.515625 C 5.210938 3.753906 4.035156 2.671875 3.203125 1.265625 C 2.367188 -0.128906 1.953125 -1.757812 1.953125 -3.625 C 1.953125 -6.269531 2.566406 -8.6875 3.796875 -10.875 C 5.035156 -13.070312 6.75 -14.804688 8.9375 -16.078125 C 11.125 -17.347656 13.597656 -17.984375 16.359375 -17.984375 Z M 13.078125 -2.25 C 13.859375 -2.25 14.566406 -2.476562 15.203125 -2.9375 C 15.847656 -3.394531 16.351562 -4 16.71875 -4.75 C 17.09375 -5.5 17.28125 -6.300781 17.28125 -7.15625 C 17.28125 -8.039062 17.035156 -8.765625 16.546875 -9.328125 C 16.054688 -9.898438 15.363281 -10.1875 14.46875 -10.1875 C 13.675781 -10.1875 12.976562 -9.9375 12.375 -9.4375 C 11.769531 -8.945312 11.300781 -8.3125 10.96875 -7.53125 C 10.644531 -6.757812 10.484375 -5.945312 10.484375 -5.09375 C 10.484375 -4.21875 10.695312 -3.523438 11.125 -3.015625 C 11.550781 -2.503906 12.203125 -2.25 13.078125 -2.25 Z M 13.078125 -2.25 "/></g></g></g><g fill="#d82036" fill-opacity="1"><g transform="translate(33.015676, 31.194513)"><g><path d="M 22.453125 -19.34375 L 22.453125 0 L 19.28125 0 L 19.28125 -13.25 L 13.390625 0 L 11.1875 0 L 5.265625 -13.25 L 5.265625 0 L 2.09375 0 L 2.09375 -19.34375 L 5.515625 -19.34375 L 12.296875 -4.171875 L 19.0625 -19.34375 Z M 22.453125 -19.34375 "/></g></g></g><g fill="#d82036" fill-opacity="1"><g transform="translate(57.555126, 31.194513)"><g><path d="M 1.03125 -7.734375 C 1.03125 -9.273438 1.347656 -10.640625 1.984375 -11.828125 C 2.628906 -13.015625 3.503906 -13.9375 4.609375 -14.59375 C 5.710938 -15.25 6.929688 -15.578125 8.265625 -15.578125 C 9.472656 -15.578125 10.523438 -15.34375 11.421875 -14.875 C 12.316406 -14.40625 13.035156 -13.816406 13.578125 -13.109375 L 13.578125 -15.328125 L 16.78125 -15.328125 L 16.78125 0 L 13.578125 0 L 13.578125 -2.28125 C 13.035156 -1.5625 12.300781 -0.957031 11.375 -0.46875 C 10.445312 0.0078125 9.390625 0.25 8.203125 0.25 C 6.890625 0.25 5.6875 -0.0859375 4.59375 -0.765625 C 3.5 -1.441406 2.628906 -2.382812 1.984375 -3.59375 C 1.347656 -4.8125 1.03125 -6.191406 1.03125 -7.734375 Z M 13.578125 -7.6875 C 13.578125 -8.738281 13.359375 -9.65625 12.921875 -10.4375 C 12.484375 -11.21875 11.910156 -11.8125 11.203125 -12.21875 C 10.503906 -12.625 9.75 -12.828125 8.9375 -12.828125 C 8.113281 -12.828125 7.347656 -12.625 6.640625 -12.21875 C 5.941406 -11.820312 5.375 -11.238281 4.9375 -10.46875 C 4.5 -9.707031 4.28125 -8.796875 4.28125 -7.734375 C 4.28125 -6.679688 4.5 -5.753906 4.9375 -4.953125 C 5.375 -4.148438 5.945312 -3.539062 6.65625 -3.125 C 7.375 -2.707031 8.132812 -2.5 8.9375 -2.5 C 9.75 -2.5 10.503906 -2.703125 11.203125 -3.109375 C 11.910156 -3.523438 12.484375 -4.125 12.921875 -4.90625 C 13.359375 -5.695312 13.578125 -6.625 13.578125 -7.6875 Z M 13.578125 -7.6875 "/></g></g></g><g fill="#d82036" fill-opacity="1"><g transform="translate(76.418784, 31.194513)"><g><path d="M 5.265625 -13.109375 C 5.722656 -13.890625 6.335938 -14.492188 7.109375 -14.921875 C 7.878906 -15.359375 8.789062 -15.578125 9.84375 -15.578125 L 9.84375 -12.296875 L 9.046875 -12.296875 C 7.796875 -12.296875 6.851562 -11.976562 6.21875 -11.34375 C 5.582031 -10.71875 5.265625 -9.625 5.265625 -8.0625 L 5.265625 0 L 2.09375 0 L 2.09375 -15.328125 L 5.265625 -15.328125 Z M 5.265625 -13.109375 "/></g></g></g><g fill="#d82036" fill-opacity="1"><g transform="translate(87.102625, 31.194513)"><g><path d="M 5.78125 -12.75 L 5.78125 -4.25 C 5.78125 -3.675781 5.914062 -3.265625 6.1875 -3.015625 C 6.457031 -2.765625 6.914062 -2.640625 7.5625 -2.640625 L 9.515625 -2.640625 L 9.515625 0 L 7.015625 0 C 5.585938 0 4.492188 -0.332031 3.734375 -1 C 2.972656 -1.664062 2.59375 -2.75 2.59375 -4.25 L 2.59375 -12.75 L 0.78125 -12.75 L 0.78125 -15.328125 L 2.59375 -15.328125 L 2.59375 -19.140625 L 5.78125 -19.140625 L 5.78125 -15.328125 L 9.515625 -15.328125 L 9.515625 -12.75 Z M 5.78125 -12.75 "/></g></g></g><g fill="#d82036" fill-opacity="1"><g transform="translate(97.452595, 31.194513)"><g><path d="M 3.703125 -17.359375 C 3.128906 -17.359375 2.644531 -17.550781 2.25 -17.9375 C 1.863281 -18.332031 1.671875 -18.816406 1.671875 -19.390625 C 1.671875 -19.972656 1.863281 -20.457031 2.25 -20.84375 C 2.644531 -21.226562 3.128906 -21.421875 3.703125 -21.421875 C 4.253906 -21.421875 4.722656 -21.226562 5.109375 -20.84375 C 5.503906 -20.457031 5.703125 -19.972656 5.703125 -19.390625 C 5.703125 -18.816406 5.503906 -18.332031 5.109375 -17.9375 C 4.722656 -17.550781 4.253906 -17.359375 3.703125 -17.359375 Z M 5.265625 -15.328125 L 5.265625 0 L 2.09375 0 L 2.09375 -15.328125 Z M 5.265625 -15.328125 "/></g></g></g><g fill="#d82036" fill-opacity="1"><g transform="translate(104.797746, 31.194513)"><g><path d="M 9.828125 -15.578125 C 11.023438 -15.578125 12.101562 -15.328125 13.0625 -14.828125 C 14.019531 -14.328125 14.765625 -13.582031 15.296875 -12.59375 C 15.835938 -11.613281 16.109375 -10.429688 16.109375 -9.046875 L 16.109375 0 L 12.96875 0 L 12.96875 -8.578125 C 12.96875 -9.941406 12.625 -10.988281 11.9375 -11.71875 C 11.25 -12.457031 10.3125 -12.828125 9.125 -12.828125 C 7.9375 -12.828125 6.992188 -12.457031 6.296875 -11.71875 C 5.609375 -10.988281 5.265625 -9.941406 5.265625 -8.578125 L 5.265625 0 L 2.09375 0 L 2.09375 -15.328125 L 5.265625 -15.328125 L 5.265625 -13.578125 C 5.773438 -14.210938 6.429688 -14.703125 7.234375 -15.046875 C 8.046875 -15.398438 8.910156 -15.578125 9.828125 -15.578125 Z M 9.828125 -15.578125 "/></g></g></g><g fill="#d82036" fill-opacity="1"><g transform="translate(122.854545, 31.194513)"><g><path d="M 8.453125 0.1875 C 7.160156 0.1875 5.992188 -0.0351562 4.953125 -0.484375 C 3.910156 -0.941406 3.09375 -1.585938 2.5 -2.421875 C 1.90625 -3.253906 1.609375 -4.226562 1.609375 -5.34375 L 5.015625 -5.34375 C 5.085938 -4.507812 5.414062 -3.820312 6 -3.28125 C 6.582031 -2.75 7.398438 -2.484375 8.453125 -2.484375 C 9.554688 -2.484375 10.410156 -2.742188 11.015625 -3.265625 C 11.628906 -3.796875 11.9375 -4.476562 11.9375 -5.3125 C 11.9375 -5.96875 11.742188 -6.5 11.359375 -6.90625 C 10.984375 -7.3125 10.507812 -7.625 9.9375 -7.84375 C 9.375 -8.070312 8.59375 -8.316406 7.59375 -8.578125 C 6.332031 -8.910156 5.304688 -9.25 4.515625 -9.59375 C 3.734375 -9.9375 3.0625 -10.46875 2.5 -11.1875 C 1.945312 -11.90625 1.671875 -12.867188 1.671875 -14.078125 C 1.671875 -15.191406 1.945312 -16.164062 2.5 -17 C 3.0625 -17.832031 3.84375 -18.472656 4.84375 -18.921875 C 5.84375 -19.367188 7.003906 -19.59375 8.328125 -19.59375 C 10.191406 -19.59375 11.722656 -19.125 12.921875 -18.1875 C 14.117188 -17.25 14.785156 -15.960938 14.921875 -14.328125 L 11.40625 -14.328125 C 11.351562 -15.035156 11.019531 -15.640625 10.40625 -16.140625 C 9.789062 -16.640625 8.984375 -16.890625 7.984375 -16.890625 C 7.078125 -16.890625 6.332031 -16.65625 5.75 -16.1875 C 5.175781 -15.726562 4.890625 -15.0625 4.890625 -14.1875 C 4.890625 -13.59375 5.070312 -13.101562 5.4375 -12.71875 C 5.800781 -12.34375 6.257812 -12.046875 6.8125 -11.828125 C 7.375 -11.609375 8.132812 -11.367188 9.09375 -11.109375 C 10.375 -10.753906 11.414062 -10.398438 12.21875 -10.046875 C 13.03125 -9.691406 13.71875 -9.144531 14.28125 -8.40625 C 14.851562 -7.675781 15.140625 -6.703125 15.140625 -5.484375 C 15.140625 -4.492188 14.875 -3.5625 14.34375 -2.6875 C 13.8125 -1.820312 13.039062 -1.125 12.03125 -0.59375 C 11.019531 -0.0703125 9.828125 0.1875 8.453125 0.1875 Z M 8.453125 0.1875 "/></g></g></g><g fill="#d82036" fill-opacity="1"><g transform="translate(139.659331, 31.194513)"><g><path d="M 27.265625 -19.34375 L 21.53125 0 L 17.953125 0 L 13.890625 -14.640625 L 9.578125 0 L 6.015625 0.03125 L 0.53125 -19.34375 L 3.890625 -19.34375 L 7.90625 -3.59375 L 12.25 -19.34375 L 15.8125 -19.34375 L 19.84375 -3.671875 L 23.875 -19.34375 Z M 27.265625 -19.34375 "/></g></g></g><g fill="#d82036" fill-opacity="1"><g transform="translate(167.454024, 31.194513)"><g><path d="M 8.40625 -19.34375 C 10.46875 -19.34375 12.269531 -18.945312 13.8125 -18.15625 C 15.363281 -17.363281 16.5625 -16.226562 17.40625 -14.75 C 18.25 -13.28125 18.671875 -11.5625 18.671875 -9.59375 C 18.671875 -7.632812 18.25 -5.929688 17.40625 -4.484375 C 16.5625 -3.035156 15.363281 -1.925781 13.8125 -1.15625 C 12.269531 -0.382812 10.46875 0 8.40625 0 L 2.09375 0 L 2.09375 -19.34375 Z M 8.40625 -2.59375 C 10.664062 -2.59375 12.398438 -3.203125 13.609375 -4.421875 C 14.816406 -5.648438 15.421875 -7.375 15.421875 -9.59375 C 15.421875 -11.84375 14.816406 -13.597656 13.609375 -14.859375 C 12.398438 -16.117188 10.664062 -16.75 8.40625 -16.75 L 5.265625 -16.75 L 5.265625 -2.59375 Z M 8.40625 -2.59375 "/></g></g></g><g fill="#d82036" fill-opacity="1"><g transform="translate(187.180181, 31.194513)"><g><path d="M 16.140625 -8.046875 C 16.140625 -7.460938 16.101562 -6.941406 16.03125 -6.484375 L 4.3125 -6.484375 C 4.40625 -5.253906 4.859375 -4.269531 5.671875 -3.53125 C 6.492188 -2.789062 7.5 -2.421875 8.6875 -2.421875 C 10.394531 -2.421875 11.597656 -3.132812 12.296875 -4.5625 L 15.71875 -4.5625 C 15.257812 -3.15625 14.421875 -2 13.203125 -1.09375 C 11.984375 -0.195312 10.476562 0.25 8.6875 0.25 C 7.21875 0.25 5.898438 -0.078125 4.734375 -0.734375 C 3.578125 -1.390625 2.671875 -2.316406 2.015625 -3.515625 C 1.359375 -4.710938 1.03125 -6.101562 1.03125 -7.6875 C 1.03125 -9.257812 1.347656 -10.644531 1.984375 -11.84375 C 2.628906 -13.039062 3.53125 -13.960938 4.6875 -14.609375 C 5.84375 -15.253906 7.175781 -15.578125 8.6875 -15.578125 C 10.132812 -15.578125 11.421875 -15.257812 12.546875 -14.625 C 13.679688 -14 14.5625 -13.113281 15.1875 -11.96875 C 15.820312 -10.832031 16.140625 -9.523438 16.140625 -8.046875 Z M 12.828125 -9.046875 C 12.804688 -10.210938 12.390625 -11.144531 11.578125 -11.84375 C 10.765625 -12.550781 9.753906 -12.90625 8.546875 -12.90625 C 7.453125 -12.90625 6.515625 -12.554688 5.734375 -11.859375 C 4.953125 -11.171875 4.488281 -10.234375 4.34375 -9.046875 Z M 12.828125 -9.046875 "/></g></g></g><g fill="#d82036" fill-opacity="1"><g transform="translate(204.346673, 31.194513)"><g><path d="M 8.015625 -2.84375 L 12.359375 -15.328125 L 15.71875 -15.328125 L 9.875 0 L 6.09375 0 L 0.28125 -15.328125 L 3.671875 -15.328125 Z M 8.015625 -2.84375 "/></g></g></g></svg>