<svg xmlns="http://www.w3.org/2000/svg" xmlns:xlink="http://www.w3.org/1999/xlink" width="900" zoomAndPan="magnify" viewBox="0 0 675 135.000003" height="180" preserveAspectRatio="xMidYMid meet" version="1.0"><defs><g/><clipPath id="id1"><path d="M 2.480469 0 L 672.515625 0 L 672.515625 134.007812 L 2.480469 134.007812 Z M 2.480469 0 " clip-rule="nonzero"/></clipPath></defs><g clip-path="url(#id1)"><path fill="#ffffff" d="M 2.480469 0 L 672.519531 0 L 672.519531 141.453125 L 2.480469 141.453125 Z M 2.480469 0 " fill-opacity="1" fill-rule="nonzero"/><path fill="#ffffff" d="M 2.480469 0 L 672.519531 0 L 672.519531 134.007812 L 2.480469 134.007812 Z M 2.480469 0 " fill-opacity="1" fill-rule="nonzero"/><path fill="#d82036" d="M 2.480469 0 L 672.519531 0 L 672.519531 134.007812 L 2.480469 134.007812 Z M 2.480469 0 " fill-opacity="1" fill-rule="nonzero"/></g><g fill="#ffffff" fill-opacity="1"><g transform="translate(15.952913, 96.371733)"><g><path d="M 48.734375 -53.546875 C 55.035156 -53.546875 60.476562 -52.382812 65.0625 -50.0625 C 69.65625 -47.738281 73.148438 -44.488281 75.546875 -40.3125 C 77.953125 -36.144531 79.15625 -31.300781 79.15625 -25.78125 C 79.15625 -21.351562 78.394531 -17.125 76.875 -13.09375 C 75.351562 -9.0625 73.171875 -5.773438 70.328125 -3.234375 C 67.484375 -0.691406 64.128906 0.578125 60.265625 0.578125 C 57.441406 0.578125 55.226562 -0.0390625 53.625 -1.28125 C 52.019531 -2.53125 51.023438 -4.285156 50.640625 -6.546875 C 48.929688 -4.335938 46.773438 -2.597656 44.171875 -1.328125 C 41.578125 -0.0546875 38.875 0.578125 36.0625 0.578125 C 31.800781 0.578125 28.46875 -0.703125 26.0625 -3.265625 C 23.664062 -5.835938 22.46875 -9.335938 22.46875 -13.765625 C 22.46875 -17.960938 23.335938 -21.882812 25.078125 -25.53125 C 26.816406 -29.175781 29.257812 -32.085938 32.40625 -34.265625 C 35.5625 -36.453125 39.097656 -37.546875 43.015625 -37.546875 C 47.828125 -37.546875 51.203125 -35.914062 53.140625 -32.65625 L 53.875 -36.796875 L 62.078125 -36.796875 L 57.9375 -13.09375 C 57.769531 -11.9375 57.6875 -10.914062 57.6875 -10.03125 C 57.6875 -8.59375 57.976562 -7.515625 58.5625 -6.796875 C 59.144531 -6.078125 60.179688 -5.71875 61.671875 -5.71875 C 63.773438 -5.71875 65.570312 -6.753906 67.0625 -8.828125 C 68.550781 -10.898438 69.664062 -13.453125 70.40625 -16.484375 C 71.15625 -19.523438 71.53125 -22.484375 71.53125 -25.359375 C 71.53125 -32.378906 69.484375 -37.738281 65.390625 -41.4375 C 61.304688 -45.144531 55.367188 -47 47.578125 -47 C 41.054688 -47 35.210938 -45.453125 30.046875 -42.359375 C 24.878906 -39.265625 20.832031 -35.007812 17.90625 -29.59375 C 14.976562 -24.175781 13.515625 -18.148438 13.515625 -11.515625 C 13.515625 -4.441406 15.613281 0.941406 19.8125 4.640625 C 24.007812 8.347656 30.003906 10.203125 37.796875 10.203125 C 43.046875 10.203125 47.632812 9.234375 51.5625 7.296875 L 52.796875 13.59375 C 47.773438 15.75 42.140625 16.828125 35.890625 16.828125 C 29.867188 16.828125 24.59375 15.691406 20.0625 13.421875 C 15.53125 11.160156 12.019531 7.941406 9.53125 3.765625 C 7.039062 -0.398438 5.796875 -5.25 5.796875 -10.78125 C 5.796875 -18.675781 7.632812 -25.882812 11.3125 -32.40625 C 14.988281 -38.925781 20.085938 -44.078125 26.609375 -47.859375 C 33.128906 -51.648438 40.503906 -53.546875 48.734375 -53.546875 Z M 38.953125 -6.71875 C 41.273438 -6.71875 43.390625 -7.394531 45.296875 -8.75 C 47.203125 -10.101562 48.707031 -11.894531 49.8125 -14.125 C 50.914062 -16.363281 51.46875 -18.753906 51.46875 -21.296875 C 51.46875 -23.953125 50.734375 -26.125 49.265625 -27.8125 C 47.804688 -29.5 45.753906 -30.34375 43.109375 -30.34375 C 40.722656 -30.34375 38.632812 -29.609375 36.84375 -28.140625 C 35.050781 -26.671875 33.671875 -24.773438 32.703125 -22.453125 C 31.734375 -20.140625 31.25 -17.710938 31.25 -15.171875 C 31.25 -12.566406 31.882812 -10.503906 33.15625 -8.984375 C 34.425781 -7.472656 36.359375 -6.71875 38.953125 -6.71875 Z M 38.953125 -6.71875 "/></g></g></g><g fill="#ffffff" fill-opacity="1"><g transform="translate(100.907117, 96.371733)"><g><path d="M 66.890625 -57.609375 L 66.890625 0 L 57.4375 0 L 57.4375 -39.453125 L 39.875 0 L 33.328125 0 L 15.671875 -39.453125 L 15.671875 0 L 6.21875 0 L 6.21875 -57.609375 L 16.40625 -57.609375 L 36.640625 -12.4375 L 56.78125 -57.609375 Z M 66.890625 -57.609375 "/></g></g></g><g fill="#ffffff" fill-opacity="1"><g transform="translate(174.009174, 96.371733)"><g><path d="M 3.0625 -23.046875 C 3.0625 -27.628906 4.015625 -31.6875 5.921875 -35.21875 C 7.828125 -38.757812 10.425781 -41.507812 13.71875 -43.46875 C 17.007812 -45.4375 20.644531 -46.421875 24.625 -46.421875 C 28.207031 -46.421875 31.335938 -45.710938 34.015625 -44.296875 C 36.703125 -42.890625 38.847656 -41.140625 40.453125 -39.046875 L 40.453125 -45.671875 L 49.984375 -45.671875 L 49.984375 0 L 40.453125 0 L 40.453125 -6.796875 C 38.847656 -4.640625 36.660156 -2.84375 33.890625 -1.40625 C 31.128906 0.03125 27.984375 0.75 24.453125 0.75 C 20.523438 0.75 16.929688 -0.257812 13.671875 -2.28125 C 10.410156 -4.300781 7.828125 -7.117188 5.921875 -10.734375 C 4.015625 -14.347656 3.0625 -18.453125 3.0625 -23.046875 Z M 40.453125 -22.875 C 40.453125 -26.03125 39.800781 -28.765625 38.5 -31.078125 C 37.207031 -33.398438 35.507812 -35.171875 33.40625 -36.390625 C 31.300781 -37.609375 29.035156 -38.21875 26.609375 -38.21875 C 24.171875 -38.21875 21.898438 -37.617188 19.796875 -36.421875 C 17.703125 -35.234375 16.003906 -33.492188 14.703125 -31.203125 C 13.410156 -28.910156 12.765625 -26.191406 12.765625 -23.046875 C 12.765625 -19.890625 13.410156 -17.125 14.703125 -14.75 C 16.003906 -12.375 17.71875 -10.5625 19.84375 -9.3125 C 21.976562 -8.070312 24.234375 -7.453125 26.609375 -7.453125 C 29.035156 -7.453125 31.300781 -8.0625 33.40625 -9.28125 C 35.507812 -10.5 37.207031 -12.28125 38.5 -14.625 C 39.800781 -16.976562 40.453125 -19.726562 40.453125 -22.875 Z M 40.453125 -22.875 "/></g></g></g><g fill="#ffffff" fill-opacity="1"><g transform="translate(230.203272, 96.371733)"><g><path d="M 15.671875 -39.046875 C 17.046875 -41.359375 18.878906 -43.164062 21.171875 -44.46875 C 23.472656 -45.769531 26.195312 -46.421875 29.34375 -46.421875 L 29.34375 -36.640625 L 26.9375 -36.640625 C 23.238281 -36.640625 20.4375 -35.695312 18.53125 -33.8125 C 16.625 -31.9375 15.671875 -28.675781 15.671875 -24.03125 L 15.671875 0 L 6.21875 0 L 6.21875 -45.671875 L 15.671875 -45.671875 Z M 15.671875 -39.046875 "/></g></g></g><g fill="#ffffff" fill-opacity="1"><g transform="translate(262.030017, 96.371733)"><g><path d="M 17.234375 -37.96875 L 17.234375 -12.6875 C 17.234375 -10.96875 17.632812 -9.734375 18.4375 -8.984375 C 19.238281 -8.242188 20.609375 -7.875 22.546875 -7.875 L 28.34375 -7.875 L 28.34375 0 L 20.890625 0 C 16.628906 0 13.363281 -0.992188 11.09375 -2.984375 C 8.832031 -4.972656 7.703125 -8.207031 7.703125 -12.6875 L 7.703125 -37.96875 L 2.328125 -37.96875 L 2.328125 -45.671875 L 7.703125 -45.671875 L 7.703125 -57.03125 L 17.234375 -57.03125 L 17.234375 -45.671875 L 28.34375 -45.671875 L 28.34375 -37.96875 Z M 17.234375 -37.96875 "/></g></g></g><g fill="#ffffff" fill-opacity="1"><g transform="translate(292.862178, 96.371733)"><g><path d="M 11.03125 -51.71875 C 9.3125 -51.71875 7.867188 -52.296875 6.703125 -53.453125 C 5.546875 -54.617188 4.96875 -56.0625 4.96875 -57.78125 C 4.96875 -59.488281 5.546875 -60.921875 6.703125 -62.078125 C 7.867188 -63.242188 9.3125 -63.828125 11.03125 -63.828125 C 12.6875 -63.828125 14.09375 -63.242188 15.25 -62.078125 C 16.414062 -60.921875 17 -59.488281 17 -57.78125 C 17 -56.0625 16.414062 -54.617188 15.25 -53.453125 C 14.09375 -52.296875 12.6875 -51.71875 11.03125 -51.71875 Z M 15.671875 -45.671875 L 15.671875 0 L 6.21875 0 L 6.21875 -45.671875 Z M 15.671875 -45.671875 "/></g></g></g><g fill="#ffffff" fill-opacity="1"><g transform="translate(314.743065, 96.371733)"><g><path d="M 29.265625 -46.421875 C 32.847656 -46.421875 36.0625 -45.671875 38.90625 -44.171875 C 41.757812 -42.679688 43.988281 -40.472656 45.59375 -37.546875 C 47.195312 -34.617188 48 -31.082031 48 -26.9375 L 48 0 L 38.625 0 L 38.625 -25.53125 C 38.625 -29.625 37.601562 -32.757812 35.5625 -34.9375 C 33.519531 -37.125 30.726562 -38.21875 27.1875 -38.21875 C 23.65625 -38.21875 20.851562 -37.125 18.78125 -34.9375 C 16.707031 -32.757812 15.671875 -29.625 15.671875 -25.53125 L 15.671875 0 L 6.21875 0 L 6.21875 -45.671875 L 15.671875 -45.671875 L 15.671875 -40.453125 C 17.210938 -42.328125 19.1875 -43.789062 21.59375 -44.84375 C 24 -45.894531 26.554688 -46.421875 29.265625 -46.421875 Z M 29.265625 -46.421875 "/></g></g></g><g fill="#ffffff" fill-opacity="1"><g transform="translate(368.533581, 96.371733)"><g><path d="M 25.203125 0.578125 C 21.328125 0.578125 17.84375 -0.0976562 14.75 -1.453125 C 11.65625 -2.804688 9.222656 -4.722656 7.453125 -7.203125 C 5.691406 -9.691406 4.8125 -12.597656 4.8125 -15.921875 L 14.921875 -15.921875 C 15.140625 -13.429688 16.117188 -11.382812 17.859375 -9.78125 C 19.597656 -8.175781 22.046875 -7.375 25.203125 -7.375 C 28.460938 -7.375 31.003906 -8.160156 32.828125 -9.734375 C 34.648438 -11.316406 35.5625 -13.347656 35.5625 -15.828125 C 35.5625 -17.765625 34.992188 -19.335938 33.859375 -20.546875 C 32.722656 -21.765625 31.3125 -22.707031 29.625 -23.375 C 27.945312 -24.039062 25.613281 -24.757812 22.625 -25.53125 C 18.875 -26.519531 15.820312 -27.523438 13.46875 -28.546875 C 11.125 -29.578125 9.117188 -31.171875 7.453125 -33.328125 C 5.796875 -35.484375 4.96875 -38.351562 4.96875 -41.9375 C 4.96875 -45.257812 5.796875 -48.160156 7.453125 -50.640625 C 9.117188 -53.128906 11.441406 -55.035156 14.421875 -56.359375 C 17.410156 -57.691406 20.863281 -58.359375 24.78125 -58.359375 C 30.363281 -58.359375 34.9375 -56.960938 38.5 -54.171875 C 42.0625 -51.378906 44.035156 -47.550781 44.421875 -42.6875 L 33.984375 -42.6875 C 33.816406 -44.789062 32.820312 -46.585938 31 -48.078125 C 29.175781 -49.566406 26.773438 -50.3125 23.796875 -50.3125 C 21.085938 -50.3125 18.875 -49.617188 17.15625 -48.234375 C 15.445312 -46.859375 14.59375 -44.875 14.59375 -42.28125 C 14.59375 -40.507812 15.128906 -39.054688 16.203125 -37.921875 C 17.285156 -36.785156 18.65625 -35.882812 20.3125 -35.21875 C 21.96875 -34.5625 24.234375 -33.847656 27.109375 -33.078125 C 30.921875 -32.023438 34.023438 -30.972656 36.421875 -29.921875 C 38.828125 -28.867188 40.875 -27.25 42.5625 -25.0625 C 44.25 -22.882812 45.09375 -19.972656 45.09375 -16.328125 C 45.09375 -13.398438 44.304688 -10.632812 42.734375 -8.03125 C 41.160156 -5.4375 38.863281 -3.351562 35.84375 -1.78125 C 32.832031 -0.207031 29.285156 0.578125 25.203125 0.578125 Z M 25.203125 0.578125 "/></g></g></g><g fill="#ffffff" fill-opacity="1"><g transform="translate(418.5944, 96.371733)"><g><path d="M 81.234375 -57.609375 L 64.15625 0 L 53.46875 0 L 41.359375 -43.59375 L 28.515625 0 L 17.90625 0.078125 L 1.578125 -57.609375 L 11.609375 -57.609375 L 23.546875 -10.6875 L 36.46875 -57.609375 L 47.078125 -57.609375 L 59.09375 -10.9375 L 71.125 -57.609375 Z M 81.234375 -57.609375 "/></g></g></g><g fill="#ffffff" fill-opacity="1"><g transform="translate(501.393668, 96.371733)"><g><path d="M 25.03125 -57.609375 C 31.164062 -57.609375 36.539062 -56.429688 41.15625 -54.078125 C 45.769531 -51.734375 49.332031 -48.363281 51.84375 -43.96875 C 54.363281 -39.582031 55.625 -34.457031 55.625 -28.59375 C 55.625 -22.738281 54.363281 -17.65625 51.84375 -13.34375 C 49.332031 -9.03125 45.769531 -5.726562 41.15625 -3.4375 C 36.539062 -1.144531 31.164062 0 25.03125 0 L 6.21875 0 L 6.21875 -57.609375 Z M 25.03125 -7.703125 C 31.769531 -7.703125 36.9375 -9.523438 40.53125 -13.171875 C 44.125 -16.828125 45.921875 -21.96875 45.921875 -28.59375 C 45.921875 -35.28125 44.125 -40.503906 40.53125 -44.265625 C 36.9375 -48.023438 31.769531 -49.90625 25.03125 -49.90625 L 15.671875 -49.90625 L 15.671875 -7.703125 Z M 25.03125 -7.703125 "/></g></g></g><g fill="#ffffff" fill-opacity="1"><g transform="translate(560.157113, 96.371733)"><g><path d="M 48.078125 -23.953125 C 48.078125 -22.242188 47.96875 -20.695312 47.75 -19.3125 L 12.84375 -19.3125 C 13.125 -15.664062 14.476562 -12.738281 16.90625 -10.53125 C 19.34375 -8.320312 22.328125 -7.21875 25.859375 -7.21875 C 30.941406 -7.21875 34.535156 -9.34375 36.640625 -13.59375 L 46.828125 -13.59375 C 45.453125 -9.394531 42.953125 -5.953125 39.328125 -3.265625 C 35.710938 -0.585938 31.222656 0.75 25.859375 0.75 C 21.492188 0.75 17.582031 -0.226562 14.125 -2.1875 C 10.675781 -4.15625 7.96875 -6.921875 6 -10.484375 C 4.039062 -14.046875 3.0625 -18.175781 3.0625 -22.875 C 3.0625 -27.570312 4.015625 -31.703125 5.921875 -35.265625 C 7.828125 -38.828125 10.503906 -41.578125 13.953125 -43.515625 C 17.410156 -45.453125 21.378906 -46.421875 25.859375 -46.421875 C 30.171875 -46.421875 34.007812 -45.476562 37.375 -43.59375 C 40.75 -41.71875 43.375 -39.082031 45.25 -35.6875 C 47.132812 -32.289062 48.078125 -28.378906 48.078125 -23.953125 Z M 38.21875 -26.9375 C 38.15625 -30.414062 36.90625 -33.207031 34.46875 -35.3125 C 32.039062 -37.414062 29.035156 -38.46875 25.453125 -38.46875 C 22.191406 -38.46875 19.398438 -37.429688 17.078125 -35.359375 C 14.753906 -33.285156 13.375 -30.476562 12.9375 -26.9375 Z M 38.21875 -26.9375 "/></g></g></g><g fill="#ffffff" fill-opacity="1"><g transform="translate(611.2954, 96.371733)"><g><path d="M 23.875 -8.453125 L 36.796875 -45.671875 L 46.828125 -45.671875 L 29.421875 0 L 18.15625 0 L 0.828125 -45.671875 L 10.9375 -45.671875 Z M 23.875 -8.453125 "/></g></g></g></svg>