<svg xmlns="http://www.w3.org/2000/svg" xmlns:xlink="http://www.w3.org/1999/xlink" width="120" zoomAndPan="magnify" viewBox="0 0 90 44.999999" height="60" preserveAspectRatio="xMidYMid meet" version="1.0"><path fill="#599636" d="M 12.109375 3.867188 L 12.929688 5.402344 C 13.105469 5.679688 13.3125 5.9375 13.546875 6.171875 C 14.230469 6.855469 14.882812 7.574219 15.464844 8.34375 C 16.851562 10.164062 17.785156 12.183594 18.457031 14.371094 C 18.855469 15.707031 19.074219 17.078125 19.089844 18.464844 C 19.15625 22.605469 17.738281 26.164062 14.863281 29.121094 C 14.398438 29.589844 13.898438 30.019531 13.359375 30.40625 C 13.078125 30.40625 12.945312 30.179688 12.828125 29.988281 C 12.601562 29.613281 12.476562 29.203125 12.410156 28.785156 C 12.308594 28.285156 12.242188 27.785156 12.273438 27.265625 L 12.273438 27.03125 C 12.257812 26.980469 12.007812 3.984375 12.109375 3.867188 Z M 12.109375 3.867188 " fill-opacity="1" fill-rule="nonzero"/><path fill="#6cac48" d="M 12.109375 3.816406 C 12.078125 3.75 12.042969 3.800781 12.007812 3.832031 C 12.027344 4.167969 11.910156 4.46875 11.726562 4.75 C 11.523438 5.035156 11.257812 5.253906 10.988281 5.484375 C 9.503906 6.773438 8.335938 8.324219 7.398438 10.0625 C 6.164062 12.402344 5.511719 14.90625 5.328125 17.546875 C 5.246094 18.496094 5.628906 21.855469 5.929688 22.824219 C 6.746094 25.394531 8.21875 27.550781 10.128906 29.421875 C 10.597656 29.871094 11.097656 30.289062 11.617188 30.6875 C 11.765625 30.6875 11.785156 30.554688 11.816406 30.457031 C 11.882812 30.242188 11.933594 30.023438 11.96875 29.804688 C 12.117188 28.96875 12.199219 28.132812 12.300781 27.296875 L 12.117188 3.816406 Z M 12.109375 3.816406 " fill-opacity="1" fill-rule="nonzero"/><path fill="#ffffff" d="M 12.929688 31.425781 C 12.964844 31.039062 13.15625 30.722656 13.347656 30.40625 C 13.148438 30.324219 12.996094 30.15625 12.878906 29.972656 C 12.777344 29.804688 12.695312 29.597656 12.628906 29.421875 C 12.394531 28.71875 12.34375 27.984375 12.277344 27.265625 L 12.277344 26.832031 C 12.195312 26.898438 12.179688 27.464844 12.179688 27.550781 C 12.128906 28.316406 12.027344 29.070312 11.878906 29.804688 C 11.828125 30.101562 11.796875 30.40625 11.609375 30.671875 C 11.609375 30.707031 11.609375 30.738281 11.628906 30.789062 C 11.925781 31.675781 12.011719 32.578125 12.0625 33.496094 L 12.0625 33.828125 C 12.0625 34.230469 12.046875 34.144531 12.378906 34.277344 C 12.511719 34.328125 12.664062 34.347656 12.796875 34.445312 C 12.898438 34.445312 12.914062 34.363281 12.914062 34.296875 L 12.863281 33.746094 L 12.863281 32.207031 C 12.847656 31.941406 12.898438 31.671875 12.929688 31.421875 Z M 12.929688 31.425781 " fill-opacity="1" fill-rule="nonzero"/><path fill="#ffffff" d="M 25.613281 24.441406 L 25.613281 26.03125 C 25.613281 26.09375 25.613281 26.15625 25.625 26.21875 C 25.644531 26.40625 25.761719 26.523438 25.929688 26.574219 C 26.089844 26.617188 26.25 26.648438 26.414062 26.667969 C 26.507812 26.679688 26.539062 26.722656 26.550781 26.820312 C 26.558594 27.179688 26.527344 27.21875 26.183594 27.199219 C 25.378906 27.15625 24.570312 27.148438 23.765625 27.199219 L 23.6875 27.199219 C 23.4375 27.210938 23.417969 27.1875 23.417969 26.9375 C 23.417969 26.894531 23.425781 26.84375 23.425781 26.800781 C 23.425781 26.722656 23.480469 26.6875 23.554688 26.6875 C 23.722656 26.664062 23.878906 26.621094 24.035156 26.589844 C 24.253906 26.539062 24.378906 26.402344 24.402344 26.183594 C 24.433594 25.941406 24.433594 25.691406 24.433594 25.449219 L 24.441406 22.644531 C 24.449219 22.464844 24.375 22.332031 24.214844 22.246094 C 24.023438 22.140625 23.824219 22.058594 23.617188 21.996094 C 23.554688 21.976562 23.492188 21.964844 23.4375 21.933594 C 23.285156 21.859375 23.28125 21.726562 23.425781 21.640625 C 23.480469 21.609375 23.542969 21.589844 23.605469 21.578125 C 24.242188 21.484375 24.863281 21.328125 25.46875 21.105469 C 25.59375 21.066406 25.625 21.074219 25.636719 21.199219 C 25.648438 21.277344 25.636719 21.371094 25.625 21.441406 C 25.605469 21.578125 25.605469 21.714844 25.605469 21.839844 C 25.605469 21.890625 25.617188 21.945312 25.667969 21.976562 C 25.71875 22.007812 25.773438 21.976562 25.820312 21.945312 C 26.039062 21.777344 26.261719 21.621094 26.5 21.484375 C 26.84375 21.296875 27.214844 21.128906 27.609375 21.078125 C 28.09375 21.015625 28.511719 21.140625 28.878906 21.453125 C 29.03125 21.589844 29.164062 21.742188 29.277344 21.914062 C 29.378906 22.066406 29.390625 22.070312 29.527344 21.964844 C 29.925781 21.671875 30.34375 21.414062 30.792969 21.222656 C 31.265625 21.023438 31.746094 20.992188 32.226562 21.160156 C 32.71875 21.339844 33.054688 21.683594 33.253906 22.15625 C 33.421875 22.53125 33.492188 22.921875 33.492188 23.328125 L 33.492188 26.132812 C 33.492188 26.320312 33.570312 26.4375 33.753906 26.53125 C 33.953125 26.605469 34.175781 26.644531 34.382812 26.6875 C 34.519531 26.71875 34.519531 26.71875 34.519531 26.855469 C 34.5 27.199219 34.46875 27.222656 34.132812 27.199219 C 33.292969 27.152344 32.449219 27.152344 31.609375 27.199219 C 31.441406 27.210938 31.441406 27.210938 31.433594 27.042969 L 31.433594 26.992188 C 31.421875 26.707031 31.421875 26.707031 31.695312 26.644531 L 31.964844 26.574219 C 32.183594 26.523438 32.289062 26.386719 32.292969 26.164062 L 32.320312 25.378906 L 32.300781 23.328125 C 32.292969 23.144531 32.253906 22.964844 32.1875 22.792969 C 31.925781 22.15625 31.347656 21.925781 30.792969 21.988281 C 30.375 22.03125 30.007812 22.199219 29.664062 22.4375 C 29.589844 22.492188 29.539062 22.554688 29.546875 22.660156 C 29.644531 23.328125 29.578125 24 29.589844 24.667969 L 29.589844 26.125 C 29.589844 26.386719 29.695312 26.511719 29.945312 26.574219 L 30.429688 26.679688 C 30.503906 26.691406 30.542969 26.722656 30.542969 26.804688 L 30.542969 26.882812 C 30.535156 27.175781 30.515625 27.1875 30.21875 27.183594 C 29.382812 27.140625 28.542969 27.152344 27.71875 27.183594 C 27.433594 27.195312 27.410156 27.164062 27.425781 26.878906 C 27.4375 26.710938 27.457031 26.699219 27.613281 26.667969 L 27.957031 26.605469 C 28.265625 26.542969 28.378906 26.429688 28.398438 26.105469 L 28.429688 25.402344 L 28.40625 23.296875 C 28.386719 23.035156 28.332031 22.785156 28.1875 22.546875 C 27.980469 22.15625 27.652344 21.960938 27.203125 21.9375 C 26.753906 21.90625 26.355469 22.074219 25.976562 22.28125 C 25.714844 22.433594 25.601562 22.617188 25.621094 22.921875 L 25.621094 24.449219 Z M 45.332031 24.503906 L 45.332031 25.980469 C 45.332031 26.082031 45.339844 26.1875 45.351562 26.292969 C 45.363281 26.453125 45.445312 26.550781 45.601562 26.585938 C 45.785156 26.640625 45.96875 26.671875 46.15625 26.679688 C 46.261719 26.691406 46.28125 26.734375 46.292969 26.816406 L 46.292969 26.890625 C 46.28125 27.257812 46.242188 27.296875 45.886719 27.277344 C 45.089844 27.226562 44.296875 27.234375 43.5 27.277344 L 43.191406 27.289062 C 43.128906 27.289062 43.117188 27.257812 43.097656 27.214844 C 43.066406 27.070312 43.066406 26.921875 43.097656 26.777344 C 43.109375 26.710938 43.152344 26.699219 43.214844 26.679688 C 43.367188 26.660156 43.496094 26.628906 43.640625 26.605469 C 43.90625 26.542969 44 26.4375 44.007812 26.164062 L 44.039062 25.285156 L 44.039062 22.710938 C 44.039062 22.523438 43.964844 22.40625 43.796875 22.324219 C 43.609375 22.21875 43.410156 22.144531 43.203125 22.074219 C 43.136719 22.050781 43.074219 22.03125 43.023438 22 C 42.886719 21.90625 42.871094 21.769531 43.003906 21.664062 C 43.0625 21.613281 43.132812 21.585938 43.210938 21.578125 C 43.882812 21.476562 44.53125 21.328125 45.160156 21.078125 C 45.234375 21.046875 45.265625 21.066406 45.296875 21.128906 C 45.328125 21.191406 45.335938 21.265625 45.324219 21.339844 L 45.296875 21.832031 C 45.296875 21.894531 45.265625 21.984375 45.316406 22.007812 C 45.378906 22.050781 45.421875 21.957031 45.472656 21.929688 C 45.785156 21.671875 46.121094 21.453125 46.488281 21.28125 C 46.8125 21.128906 47.148438 21.03125 47.523438 21.054688 C 48.226562 21.09375 48.726562 21.453125 49.050781 22.070312 C 49.222656 22.394531 49.292969 22.75 49.324219 23.117188 L 49.355469 23.882812 L 49.367188 26.195312 C 49.375 26.371094 49.4375 26.488281 49.617188 26.550781 C 49.800781 26.613281 49.988281 26.65625 50.183594 26.6875 C 50.351562 26.707031 50.359375 26.738281 50.371094 26.894531 L 50.371094 26.949219 C 50.351562 27.304688 50.328125 27.3125 49.972656 27.292969 C 49.191406 27.25 48.410156 27.25 47.628906 27.292969 C 47.523438 27.304688 47.417969 27.292969 47.320312 27.304688 C 47.257812 27.304688 47.214844 27.292969 47.207031 27.230469 C 47.1875 27.09375 47.164062 26.957031 47.195312 26.8125 C 47.207031 26.746094 47.238281 26.714844 47.3125 26.707031 L 47.792969 26.628906 C 47.960938 26.585938 48.054688 26.476562 48.078125 26.324219 L 48.097656 26.03125 L 48.085938 23.84375 C 48.085938 23.589844 48.074219 23.339844 48.023438 23.089844 C 47.898438 22.550781 47.488281 22.167969 46.9375 22.117188 C 46.453125 22.0625 46.015625 22.191406 45.617188 22.449219 C 45.417969 22.578125 45.335938 22.753906 45.335938 22.972656 L 45.335938 24.554688 C 45.335938 24.523438 45.335938 24.523438 45.34375 24.523438 Z M 45.332031 24.503906 " fill-opacity="1" fill-rule="nonzero"/><path fill="#ffffff" d="M 75.984375 21.539062 C 75.871094 20.777344 75.585938 20.097656 75.09375 19.5 C 74.660156 18.964844 74.121094 18.566406 73.484375 18.308594 C 72.824219 18.035156 72.121094 17.949219 71.410156 17.929688 C 71.117188 17.917969 67.121094 17.980469 66.824219 17.929688 C 66.753906 17.917969 66.699219 17.941406 66.65625 18.003906 C 66.605469 18.082031 66.550781 18.160156 66.519531 18.242188 C 66.394531 18.527344 66.394531 18.507812 66.699219 18.546875 C 66.949219 18.589844 67.191406 18.609375 67.433594 18.683594 C 67.652344 18.757812 67.808594 18.882812 67.859375 19.125 C 67.882812 19.238281 67.902344 22.921875 67.902344 24.640625 L 67.859375 25.863281 C 67.851562 25.957031 67.839844 26.050781 67.808594 26.136719 C 67.765625 26.261719 67.695312 26.367188 67.566406 26.417969 C 67.429688 26.484375 67.28125 26.523438 67.128906 26.535156 C 66.84375 26.566406 66.804688 26.578125 66.710938 26.890625 L 66.679688 27.003906 C 66.660156 27.140625 66.667969 27.164062 66.804688 27.164062 L 69.933594 27.191406 L 71.160156 27.171875 L 72.007812 27.066406 C 72.96875 26.890625 73.828125 26.492188 74.558594 25.851562 C 74.984375 25.480469 75.316406 25.039062 75.566406 24.535156 C 75.859375 23.949219 75.984375 23.308594 76.015625 22.660156 C 76.066406 22.296875 76.046875 21.917969 75.984375 21.542969 Z M 74.46875 23.027344 C 74.425781 23.695312 74.289062 24.34375 73.945312 24.929688 C 73.503906 25.695312 72.875 26.230469 72.007812 26.417969 C 71.632812 26.492188 71.253906 26.53125 70.859375 26.480469 C 70.574219 26.449219 70.304688 26.417969 70.042969 26.324219 C 69.570312 26.15625 69.402344 25.863281 69.394531 25.402344 L 69.382812 19.09375 C 69.382812 18.714844 69.550781 18.632812 69.824219 18.621094 C 70.230469 18.589844 70.648438 18.601562 71.058594 18.644531 C 71.496094 18.683594 71.917969 18.789062 72.324219 18.949219 C 72.628906 19.074219 72.902344 19.246094 73.152344 19.460938 C 73.71875 19.945312 74.09375 20.550781 74.300781 21.261719 C 74.46875 21.839844 74.5 22.425781 74.46875 23.011719 Z M 84.683594 24.054688 C 84.683594 23.988281 84.683594 23.9375 84.671875 23.875 C 84.578125 23.300781 84.273438 22.859375 83.804688 22.523438 C 83.5 22.304688 83.15625 22.160156 82.800781 22.054688 C 82.738281 22.035156 82.683594 22.011719 82.621094 22.003906 C 82.632812 21.949219 82.664062 21.9375 82.695312 21.929688 C 82.902344 21.824219 83.101562 21.707031 83.28125 21.550781 C 83.605469 21.28125 83.816406 20.945312 83.929688 20.535156 C 83.992188 20.316406 83.992188 20.097656 83.972656 19.867188 C 83.933594 19.289062 83.679688 18.835938 83.207031 18.503906 C 82.726562 18.148438 82.160156 18.003906 81.574219 17.992188 C 80.445312 17.972656 79.304688 17.992188 78.175781 17.992188 C 77.847656 17.992188 77.527344 18.011719 77.191406 17.960938 C 77.128906 17.949219 77.035156 17.929688 76.992188 18.003906 C 76.914062 18.140625 76.824219 18.273438 76.792969 18.433594 C 76.78125 18.507812 76.800781 18.546875 76.886719 18.558594 L 77.609375 18.664062 C 77.890625 18.703125 78.089844 18.863281 78.109375 19.113281 C 78.132812 19.285156 78.140625 19.460938 78.140625 19.636719 L 78.121094 21.59375 L 78.109375 25.464844 C 78.109375 25.695312 78.078125 25.914062 78.035156 26.144531 C 78.011719 26.308594 77.921875 26.414062 77.765625 26.460938 C 77.554688 26.523438 77.355469 26.585938 77.136719 26.585938 C 77 26.570312 76.90625 26.632812 76.863281 26.761719 C 76.824219 26.855469 76.789062 26.960938 76.769531 27.054688 C 76.75 27.179688 76.78125 27.222656 76.90625 27.207031 C 77 27.199219 80.453125 27.28125 81.105469 27.21875 C 81.492188 27.175781 81.871094 27.125 82.253906 27.011719 C 82.914062 26.800781 83.519531 26.496094 84.003906 25.984375 C 84.402344 25.566406 84.628906 25.0625 84.652344 24.476562 C 84.679688 24.339844 84.679688 24.207031 84.679688 24.058594 Z M 79.605469 19.765625 L 79.636719 18.925781 C 79.636719 18.769531 79.699219 18.699219 79.859375 18.664062 C 80.109375 18.613281 80.359375 18.632812 80.609375 18.644531 C 80.863281 18.664062 81.101562 18.695312 81.355469 18.769531 C 81.8125 18.90625 82.171875 19.167969 82.378906 19.605469 C 82.476562 19.808594 82.523438 20.023438 82.527344 20.246094 C 82.539062 20.539062 82.515625 20.820312 82.402344 21.105469 C 82.222656 21.492188 81.941406 21.742188 81.53125 21.816406 C 81.125 21.890625 79.960938 21.859375 79.785156 21.859375 C 79.628906 21.859375 79.617188 21.835938 79.617188 21.679688 L 79.617188 20.695312 C 79.589844 20.386719 79.589844 20.082031 79.605469 19.773438 Z M 83.007812 25.394531 C 82.828125 25.867188 82.503906 26.191406 82.042969 26.367188 C 81.792969 26.460938 81.542969 26.519531 81.277344 26.503906 C 80.953125 26.492188 80.628906 26.503906 80.304688 26.441406 C 79.867188 26.347656 79.667969 25.925781 79.636719 25.625 C 79.585938 25.089844 79.617188 24.546875 79.605469 24.148438 L 79.605469 22.765625 C 79.605469 22.597656 79.625 22.546875 79.804688 22.546875 L 80.789062 22.558594 L 81.457031 22.632812 C 81.929688 22.738281 82.359375 22.917969 82.695312 23.28125 C 82.964844 23.578125 83.113281 23.933594 83.144531 24.320312 C 83.175781 24.683594 83.15625 25.042969 83.019531 25.386719 Z M 83.007812 25.394531 " fill-opacity="1" fill-rule="nonzero"/><path fill="#ffffff" d="M 56.414062 22.242188 L 56.6875 22.285156 C 56.980469 22.292969 57.324219 22.191406 57.429688 21.78125 C 57.488281 21.582031 57.488281 21.382812 57.429688 21.183594 C 57.367188 21.183594 57.335938 21.234375 57.304688 21.257812 C 57.148438 21.382812 56.96875 21.457031 56.78125 21.476562 C 56.40625 21.519531 56.027344 21.496094 55.660156 21.363281 L 55.148438 21.183594 C 54.789062 21.066406 54.417969 21.019531 54.039062 21.039062 C 53.503906 21.082031 53 21.257812 52.53125 21.511719 C 52.027344 21.78125 51.671875 22.191406 51.503906 22.746094 C 51.410156 23.070312 51.398438 23.402344 51.441406 23.738281 C 51.546875 24.503906 51.945312 25.039062 52.65625 25.320312 C 52.699219 25.332031 52.730469 25.351562 52.769531 25.363281 C 52.863281 25.414062 52.875 25.46875 52.792969 25.539062 L 52.53125 25.71875 L 51.902344 26.105469 C 51.746094 26.199219 51.722656 26.273438 51.777344 26.441406 C 51.839844 26.640625 51.949219 26.808594 52.109375 26.941406 C 52.253906 27.066406 52.414062 27.164062 52.59375 27.234375 C 52.707031 27.289062 52.707031 27.3125 52.601562 27.402344 L 52.003906 27.832031 C 51.804688 27.984375 51.605469 28.140625 51.441406 28.335938 C 51.1875 28.605469 51.105469 28.917969 51.1875 29.277344 C 51.269531 29.648438 51.449219 29.964844 51.734375 30.21875 C 52.007812 30.476562 52.332031 30.648438 52.695312 30.742188 C 53.28125 30.910156 53.890625 30.921875 54.484375 30.804688 C 55.34375 30.648438 56.09375 30.269531 56.683594 29.621094 C 57.089844 29.195312 57.332031 28.691406 57.351562 28.089844 C 57.378906 27.734375 57.28125 27.410156 57.066406 27.121094 C 56.855469 26.832031 56.574219 26.644531 56.222656 26.5625 L 55.65625 26.457031 L 53.929688 26.304688 C 53.742188 26.292969 53.554688 26.261719 53.398438 26.167969 C 53.199219 26.042969 53.144531 25.804688 53.269531 25.644531 C 53.367188 25.53125 53.480469 25.457031 53.628906 25.445312 L 53.960938 25.417969 C 54.640625 25.347656 55.230469 25.078125 55.730469 24.609375 C 55.996094 24.367188 56.171875 24.070312 56.265625 23.71875 C 56.390625 23.269531 56.390625 22.800781 56.285156 22.34375 C 56.253906 22.226562 56.265625 22.214844 56.410156 22.238281 Z M 53.851562 27.453125 C 53.914062 27.464844 53.976562 27.453125 54.039062 27.453125 C 54.476562 27.476562 54.929688 27.507812 55.355469 27.625 C 55.496094 27.664062 55.632812 27.71875 55.765625 27.78125 C 56.183594 28.011719 56.339844 28.410156 56.289062 28.835938 C 56.226562 29.308594 55.964844 29.644531 55.554688 29.863281 C 55.285156 30.015625 54.980469 30.082031 54.664062 30.113281 C 54.550781 30.125 54.445312 30.113281 54.332031 30.113281 C 53.964844 30.125 53.609375 30.082031 53.261719 29.9375 C 53.023438 29.84375 52.824219 29.707031 52.644531 29.519531 C 52.28125 29.152344 52.109375 28.480469 52.65625 27.9375 C 52.992188 27.632812 53.367188 27.414062 53.851562 27.453125 Z M 55.042969 24.1875 C 54.824219 24.742188 54.339844 24.910156 53.859375 24.835938 C 53.421875 24.773438 53.097656 24.535156 52.886719 24.136719 C 52.617188 23.601562 52.542969 23.050781 52.699219 22.472656 C 52.8125 22.042969 53.074219 21.71875 53.535156 21.644531 C 54.121094 21.539062 54.683594 21.75 54.980469 22.335938 C 55.132812 22.621094 55.199219 22.964844 55.199219 23.457031 C 55.191406 23.65625 55.148438 23.925781 55.042969 24.1875 Z M 41.855469 23.476562 C 41.761719 22.910156 41.554688 22.398438 41.164062 21.96875 C 40.589844 21.332031 39.859375 21.050781 39.03125 21.046875 C 38.308594 21.039062 37.628906 21.246094 37.019531 21.625 C 36.402344 21.996094 35.992188 22.53125 35.796875 23.226562 C 35.617188 23.832031 35.628906 24.449219 35.765625 25.066406 C 36.132812 26.722656 37.410156 27.433594 38.9375 27.328125 C 39.386719 27.296875 39.816406 27.152344 40.222656 26.953125 C 40.832031 26.667969 41.269531 26.21875 41.574219 25.621094 C 41.8125 25.128906 41.917969 24.605469 41.90625 24.011719 Z M 40.371094 25.800781 C 40.292969 26.042969 40.160156 26.242188 39.960938 26.402344 C 39.765625 26.558594 39.542969 26.652344 39.292969 26.679688 C 38.832031 26.742188 38.402344 26.628906 38.015625 26.355469 C 37.734375 26.148438 37.511719 25.886719 37.355469 25.570312 C 36.925781 24.691406 36.855469 23.769531 37.074219 22.828125 C 37.144531 22.53125 37.292969 22.277344 37.511719 22.0625 C 37.898438 21.707031 38.351562 21.625 38.851562 21.730469 C 39.335938 21.835938 39.699219 22.09375 40 22.492188 C 40.300781 22.890625 40.441406 23.351562 40.523438 23.832031 C 40.566406 24.074219 40.566406 24.324219 40.578125 24.484375 C 40.578125 24.984375 40.535156 25.402344 40.378906 25.800781 Z M 64.722656 23.5625 C 64.648438 22.953125 64.421875 22.398438 63.992188 21.9375 C 63.425781 21.320312 62.695312 21.058594 61.878906 21.050781 C 61.175781 21.039062 60.527344 21.238281 59.929688 21.582031 C 59.261719 21.980469 58.800781 22.546875 58.625 23.308594 C 58.402344 24.171875 58.488281 25 58.875 25.800781 C 59.21875 26.535156 59.804688 27.003906 60.582031 27.214844 C 61.4375 27.441406 62.253906 27.339844 63.050781 26.953125 C 63.742188 26.617188 64.234375 26.09375 64.515625 25.382812 C 64.683594 24.960938 64.746094 24.511719 64.757812 23.988281 C 64.765625 23.894531 64.746094 23.726562 64.726562 23.558594 Z M 63.28125 25.664062 C 63.113281 26.230469 62.757812 26.597656 62.160156 26.679688 C 61.722656 26.742188 61.304688 26.636719 60.925781 26.386719 C 60.601562 26.167969 60.371094 25.875 60.203125 25.53125 C 60.015625 25.164062 59.910156 24.777344 59.867188 24.378906 C 59.804688 23.886719 59.804688 23.40625 59.921875 22.914062 C 59.941406 22.816406 59.972656 22.722656 60.015625 22.628906 C 60.308594 21.898438 60.957031 21.5625 61.722656 21.730469 C 62.234375 21.847656 62.621094 22.128906 62.914062 22.558594 C 63.199219 22.976562 63.332031 23.4375 63.398438 23.9375 C 63.425781 24.136719 63.4375 24.34375 63.425781 24.523438 C 63.425781 24.929688 63.398438 25.308594 63.273438 25.671875 Z M 63.28125 25.664062 " fill-opacity="1" fill-rule="nonzero"/></svg>